<?xml version="1.0" encoding="utf-8"?>
<!-- Generator: Adobe Illustrator 18.0.0, SVG Export Plug-In . SVG Version: 6.00 Build 0)  -->
<!DOCTYPE svg PUBLIC "-//W3C//DTD SVG 1.1//EN" "http://www.w3.org/Graphics/SVG/1.1/DTD/svg11.dtd">
<svg version="1.1" id="Calque_1" xmlns="http://www.w3.org/2000/svg" xmlns:xlink="http://www.w3.org/1999/xlink" x="0px" y="0px"
	 viewBox="0 0 1920 1080" enable-background="new 0 0 1920 1080" xml:space="preserve">
<g>
	
		<ellipse fill="#C4D7DF" stroke="#007DBF" stroke-width="5.2762" stroke-miterlimit="10" cx="1007.8" cy="668.2" rx="437.1" ry="405.6"/>
	<path fill="#007DBF" d="M1352.1,917.8l-53.2-217.5l-34.3,8.6l40.1,256.8C1321.9,951,1337.7,934.9,1352.1,917.8z"/>
	<path fill="#007DBF" d="M670.7,926.3c12.8,14.4,26.7,28,41.6,40.6l23-176.4l-41.5-20L670.7,926.3z"/>
	<path fill="#307B8F" d="M990,1071.9c6,0.2,12.8,0.4,18.5,0.4c8.7,0,15.5-0.3,27.5-0.8V915h-46V1071.9z"/>
	<circle fill="#0A4DAC" cx="1256" cy="687.5" r="61.5"/>
	<circle fill="#0A4DAC" cx="741" cy="744.7" r="61.5"/>
	<polygon fill="#246D6B" points="1030.6,106.3 1041,114.9 1071.8,31.1 1062.6,28.7 	"/>
	<polygon fill="#00858F" points="1016.4,116.1 1031.2,137 1044.7,114.9 1027.5,101.3 	"/>
	<polygon fill="#246D6B" points="924.5,108.4 918.4,113.4 900.5,64.8 905.9,63.4 	"/>
	<polygon fill="#00858F" points="932.7,114.2 924.1,126.3 916.2,113.4 926.3,105.6 	"/>
	<polygon fill="#465599" points="1041.4,149.1 906.9,149.1 935.6,105.2 1012.8,105.2 	"/>
	<rect x="970.9" y="502.9" fill="#307B8F" width="42.9" height="165"/>
	<polygon fill="#0066BF" points="1070,577.3 924.1,585.9 885,538.2 1093.9,522 	"/>
	<polygon fill="#007DBF" points="1115.8,522 860.2,541.1 810.6,469.5 1152.1,460 	"/>
	<polygon fill="#0094BF" points="1236,461 735.3,477.2 782,119.5 1165.4,155.8 	"/>
	<circle fill="#FFFFFF" stroke="#00858F" stroke-width="5.7225" stroke-miterlimit="10" cx="869.3" cy="281.2" r="48.2"/>
	<circle fill="#FFFFFF" stroke="#00858F" stroke-width="6.2201" stroke-miterlimit="10" cx="1122" cy="251.6" r="83.5"/>
	<g>
		<polygon fill="#FFFFFF" points="959.1,451.5 945.8,451.5 939.8,403.6 959.1,394.3 		"/>
		<polygon fill="#FFFFFF" points="987.5,451 972,450.3 972,393 987.5,393.8 		"/>
		<polygon fill="#FFFFFF" points="1014.1,448.1 1000.7,448.1 999.3,399.6 1019.5,411.9 		"/>
	</g>
	<circle fill="#00858F" cx="886" cy="286.4" r="14.3"/>
	<circle fill="#00858F" cx="1103.4" cy="280.7" r="14.3"/>
	<ellipse fill="#8F2400" cx="899.3" cy="53" rx="15.2" ry="16.1"/>
	<ellipse fill="#8F2400" cx="1070.9" cy="18.7" rx="15.2" ry="16.1"/>
	<polygon fill="#0094BF" points="710.2,676.7 1293.6,621.9 1091.5,932 938.4,932 	"/>
	<path fill="#AA5C39" d="M1117.9,715.7c11.9,11.4,21.7,26.2,38.9,31.1c-7.4,13.5-9.8,33.1-19.6,40.5c-9.8,6.1-31.9,8.6-40.5,1.2
		c-9.8-8.6-12.3-28.2-20.9-41.7c12.3-6.1,27-9.8,33.9-22.9C1114.3,719,1117.9,715.7,1117.9,715.7z"/>
	<circle fill="#FFFFFF" cx="922" cy="761.4" r="50.8"/>
	<circle fill="#FFFFFF" cx="1019.3" cy="761.4" r="31.5"/>
	<circle fill="#FFFFFF" cx="1116.5" cy="761.4" r="16.5"/>
</g>
</svg>
