<?xml version="1.0" encoding="utf-8"?>
<!-- Generator: Adobe Illustrator 18.0.0, SVG Export Plug-In . SVG Version: 6.00 Build 0)  -->
<!DOCTYPE svg PUBLIC "-//W3C//DTD SVG 1.1//EN" "http://www.w3.org/Graphics/SVG/1.1/DTD/svg11.dtd">
<svg version="1.1" id="Calque_1" xmlns="http://www.w3.org/2000/svg" xmlns:xlink="http://www.w3.org/1999/xlink" x="0px" y="0px"
	 viewBox="0 0 595.3 841.9" enable-background="new 0 0 595.3 841.9" xml:space="preserve">
<g>
	<g>
		<g>
			<ellipse fill="#C4D7DF" cx="312.5" cy="460.7" rx="135.5" ry="125.8"/>
			
				<ellipse fill="none" stroke="#007DBF" stroke-width="5.2762" stroke-miterlimit="10" cx="312.5" cy="460.7" rx="135.5" ry="125.8"/>
		</g>
		<defs>
			<filter id="Adobe_OpacityMaskFilter" filterUnits="userSpaceOnUse" x="174.3" y="332.3" width="276.3" height="256.8">
				
					<feColorMatrix  type="matrix" values="-1 0 0 0 1  0 -1 0 0 1  0 0 -1 0 1  0 0 0 1 0" color-interpolation-filters="sRGB" result="source"/>
			</filter>
		</defs>
		<mask maskUnits="userSpaceOnUse" x="174.3" y="332.3" width="276.3" height="256.8" id="SVGID_1_">
			<g filter="url(#Adobe_OpacityMaskFilter)">
				<image overflow="visible" width="281" height="262" xlink:href="E5B3B190.jpg"  transform="matrix(1 0 0 1 172 329.89)">
				</image>
			</g>
		</mask>
		<g opacity="0.6" mask="url(#SVGID_1_)">
			<ellipse cx="312.5" cy="460.7" rx="135.5" ry="125.8"/>
			
				<ellipse fill="none" stroke="#000000" stroke-width="5.2762" stroke-miterlimit="10" cx="312.5" cy="460.7" rx="135.5" ry="125.8"/>
		</g>
	</g>
	<g>
		
			<image overflow="visible" opacity="0.75" width="44" height="82" xlink:href="E5B3B190.png"  transform="matrix(1 0 0 1 286 393.89)">
		</image>
		<g>
			<rect x="301" y="409.4" fill="#307B8F" width="13.3" height="51.2"/>
		</g>
	</g>
	<g>
		
			<image overflow="visible" opacity="0.75" width="46" height="78" xlink:href="E5B3B197.png"  transform="matrix(1 0 0 1 291 521.89)">
		</image>
		<g>
			<path fill="#307B8F" d="M306.9,583.8c1.9,0.1,4.2,0.3,5.9,0.3c2.7,0,4.8-0.2,8.4-0.6l0-46.2h-14.3L306.9,583.8z"/>
		</g>
	</g>
	<g>
		
			<image overflow="visible" opacity="0.75" width="241" height="135" xlink:href="E5B3B191.png"  transform="matrix(1 0 0 1 193 430.89)">
		</image>
		<g>
			<path fill="#0094BF" d="M404.5,478.3c2.5-3.2,4-7.2,4-11.6c0-7.2-4-13.4-9.8-16.7l2.4-3.7l-180.9,17l2.9,3.2
				c-7.2,2.7-12.4,9.7-12.4,17.8c0,4.3,1.5,8.3,3.9,11.5l-6.1,41.5c4,4.5,8.1,9,12.7,12.9l6.1-47c0.8,0.1,1.6,0.2,2.4,0.2
				c7.4,0,13.8-4.3,17-10.5l44.2,49.5h47.5l39.5-60.6c3.2,2.4,7.2,3.9,11.5,3.9c1.6,0,3.1-0.2,4.5-0.6l10.1,64.7
				c5.3-4.6,9.6-9.1,14.1-14.4L404.5,478.3z"/>
		</g>
	</g>
	<path fill="#007DBF" d="M418.1,535.5l-15.3-64.9l-10.6,2.7l11.9,76.6C409.3,545.3,413.6,540.8,418.1,535.5z"/>
	<path fill="#007DBF" d="M208.5,537.4c4,4.5,8.1,9,12.7,12.9l6.7-51.7l-12.9-6.2L208.5,537.4z"/>
	<circle fill="#0A4DAC" cx="395.4" cy="466.7" r="19.1"/>
	<circle fill="#0A4DAC" cx="229.7" cy="484.4" r="19.1"/>
	<g>
		<image overflow="visible" width="32" height="46" xlink:href="E5B3B193.png"  transform="matrix(1 0 0 1 310.4961 253.3861)">
		</image>
		<g>
			<polygon fill="#246D6B" points="319.5,286.5 322.8,289.1 332.3,263.2 329.5,262.4 			"/>
		</g>
	</g>
	<g>
		<image overflow="visible" width="27" height="30" xlink:href="E5B3B19E.png"  transform="matrix(1 0 0 1 306.4961 276.3861)">
		</image>
		<g>
			<polygon fill="#00858F" points="315.1,289.5 319.7,296 323.9,289.1 318.6,284.9 			"/>
		</g>
	</g>
	<g>
		<image overflow="visible" width="26" height="34" xlink:href="E5B3B19F.png"  transform="matrix(1 0 0 1 270.4961 264.3861)">
		</image>
		<g>
			<polygon fill="#246D6B" points="286.6,287.1 284.7,288.7 279.2,273.6 280.9,273.2 			"/>
		</g>
	</g>
	<g>
		<image overflow="visible" width="24" height="25" xlink:href="E5B3B192.png"  transform="matrix(1 0 0 1 275.4961 277.3861)">
		</image>
		<g>
			<polygon fill="#00858F" points="289.2,288.9 286.5,292.7 284.1,288.7 287.2,286.3 			"/>
		</g>
	</g>
	<g>
		<image overflow="visible" width="60" height="32" xlink:href="E5B3B195.png"  transform="matrix(1 0 0 1 272.4961 277.3861)">
		</image>
		<g>
			<polygon fill="#465599" points="322.9,299.7 281.2,299.7 290.1,286.1 314,286.1 			"/>
		</g>
	</g>
	<g>
		
			<image overflow="visible" opacity="0.75" width="96" height="51" xlink:href="32F8AA2F.png"  transform="matrix(1 0 0 1 259 399.89)">
		</image>
		<g>
			<polygon fill="#0066BF" points="331.7,432.5 286.5,435.2 274.4,420.4 339.2,415.4 			"/>
		</g>
	</g>
	<g>
		
			<image overflow="visible" opacity="0.75" width="137" height="56" xlink:href="32F8AA2D.png"  transform="matrix(1 0 0 1 236 380.89)">
		</image>
		<g>
			<polygon fill="#007DBF" points="345.9,415.4 266.7,421.3 251.3,399.1 357.2,396.1 			"/>
		</g>
	</g>
	<g>
		
			<image overflow="visible" opacity="0.75" width="187" height="142" xlink:href="32F8AA2B.png"  transform="matrix(1 0 0 1 212 274.89)">
		</image>
		<g>
			<polygon fill="#0094BF" points="383.2,396.5 228,401.5 242.5,290.6 361.3,301.8 			"/>
		</g>
	</g>
	<g>
		<image overflow="visible" width="72" height="71" xlink:href="32F8AA25.png"  transform="matrix(1 0 0 1 233.9921 305.8821)">
		</image>
		<g>
			<circle fill="#FFFFFF" cx="269.5" cy="340.7" r="14.9"/>
			<circle fill="none" stroke="#00858F" stroke-width="5.7225" stroke-miterlimit="10" cx="269.5" cy="340.7" r="14.9"/>
		</g>
	</g>
	<g>
		<image overflow="visible" width="94" height="94" xlink:href="32F8AA27.png"  transform="matrix(1 0 0 1 300.9921 284.8821)">
		</image>
		<g>
			<circle fill="#FFFFFF" cx="347.9" cy="331.5" r="25.9"/>
			<circle fill="none" stroke="#00858F" stroke-width="6.2201" stroke-miterlimit="10" cx="347.9" cy="331.5" r="25.9"/>
		</g>
	</g>
	<g>
		<image overflow="visible" width="44" height="37" xlink:href="32F8AA3A.png"  transform="matrix(1 0 0 1 282.4961 366.3861)">
		</image>
		<g>
			<g>
				<polygon fill="#FFFFFF" points="297.4,393.5 293.2,393.5 291.4,378.7 297.4,375.8 				"/>
				<polygon fill="#FFFFFF" points="306.2,393.4 301.4,393.1 301.4,375.4 306.2,375.6 				"/>
				<polygon fill="#FFFFFF" points="314.4,392.5 310.3,392.5 309.8,377.4 316.1,381.2 				"/>
			</g>
		</g>
	</g>
	<circle fill="#00858F" cx="274.7" cy="342.3" r="4.4"/>
	<circle fill="#00858F" cx="342.1" cy="340.6" r="4.4"/>
	<g>
		<image overflow="visible" width="28" height="29" xlink:href="32F8AA3B.png"  transform="matrix(1 0 0 1 265.4961 256.3861)">
		</image>
		<g>
			<ellipse fill="#8F2400" cx="278.8" cy="270" rx="4.7" ry="5"/>
		</g>
	</g>
	<g>
		<image overflow="visible" width="28" height="29" xlink:href="32F8AA3D.png"  transform="matrix(1 0 0 1 318.4961 245.3861)">
		</image>
		<g>
			<ellipse fill="#8F2400" cx="332" cy="259.3" rx="4.7" ry="5"/>
		</g>
	</g>
	<polygon fill="#0094BF" points="220.2,463.3 401.1,446.3 338.4,542.5 290.9,542.5 	"/>
	<path fill="#AA5C39" d="M346.6,475.4c3.7,3.5,6.7,8.1,12.1,9.6c-2.3,4.2-3,10.3-6.1,12.6c-3,1.9-9.9,2.7-12.6,0.4
		c-3-2.7-3.8-8.7-6.5-12.9c3.8-1.9,8.4-3,10.5-7.1C345.5,476.4,346.6,475.4,346.6,475.4z"/>
	<circle fill="#FFFFFF" cx="285.9" cy="489.6" r="15.8"/>
	<circle fill="#FFFFFF" cx="316" cy="489.6" r="9.8"/>
	<circle fill="#FFFFFF" cx="346.2" cy="489.6" r="5.1"/>
</g>
</svg>
